<svg xmlns="http://www.w3.org/2000/svg" width="200" height="200" viewBox="0 0 200 200">
  <g fill="none" stroke="#85bb65" opacity="0.6">
    <!-- Outer rings -->
    <circle cx="100" cy="100" r="96" stroke-width="1.2"/>
    <circle cx="100" cy="100" r="90" stroke-width="0.5"/>
    <circle cx="100" cy="100" r="84" stroke-width="0.4"/>
    <!-- Radiating lines (every 6 degrees = 60 lines) -->
    <line x1="100" y1="4"   x2="100" y2="16"  transform="rotate(0   100 100)" stroke-width="0.6"/>
    <line x1="100" y1="4"   x2="100" y2="12"  transform="rotate(6   100 100)" stroke-width="0.4"/>
    <line x1="100" y1="4"   x2="100" y2="12"  transform="rotate(12  100 100)" stroke-width="0.4"/>
    <line x1="100" y1="4"   x2="100" y2="12"  transform="rotate(18  100 100)" stroke-width="0.4"/>
    <line x1="100" y1="4"   x2="100" y2="12"  transform="rotate(24  100 100)" stroke-width="0.4"/>
    <line x1="100" y1="4"   x2="100" y2="16"  transform="rotate(30  100 100)" stroke-width="0.6"/>
    <line x1="100" y1="4"   x2="100" y2="12"  transform="rotate(36  100 100)" stroke-width="0.4"/>
    <line x1="100" y1="4"   x2="100" y2="12"  transform="rotate(42  100 100)" stroke-width="0.4"/>
    <line x1="100" y1="4"   x2="100" y2="12"  transform="rotate(48  100 100)" stroke-width="0.4"/>
    <line x1="100" y1="4"   x2="100" y2="12"  transform="rotate(54  100 100)" stroke-width="0.4"/>
    <line x1="100" y1="4"   x2="100" y2="16"  transform="rotate(60  100 100)" stroke-width="0.6"/>
    <line x1="100" y1="4"   x2="100" y2="12"  transform="rotate(66  100 100)" stroke-width="0.4"/>
    <line x1="100" y1="4"   x2="100" y2="12"  transform="rotate(72  100 100)" stroke-width="0.4"/>
    <line x1="100" y1="4"   x2="100" y2="12"  transform="rotate(78  100 100)" stroke-width="0.4"/>
    <line x1="100" y1="4"   x2="100" y2="12"  transform="rotate(84  100 100)" stroke-width="0.4"/>
    <line x1="100" y1="4"   x2="100" y2="16"  transform="rotate(90  100 100)" stroke-width="0.6"/>
    <line x1="100" y1="4"   x2="100" y2="12"  transform="rotate(96  100 100)" stroke-width="0.4"/>
    <line x1="100" y1="4"   x2="100" y2="12"  transform="rotate(102 100 100)" stroke-width="0.4"/>
    <line x1="100" y1="4"   x2="100" y2="12"  transform="rotate(108 100 100)" stroke-width="0.4"/>
    <line x1="100" y1="4"   x2="100" y2="12"  transform="rotate(114 100 100)" stroke-width="0.4"/>
    <line x1="100" y1="4"   x2="100" y2="16"  transform="rotate(120 100 100)" stroke-width="0.6"/>
    <line x1="100" y1="4"   x2="100" y2="12"  transform="rotate(126 100 100)" stroke-width="0.4"/>
    <line x1="100" y1="4"   x2="100" y2="12"  transform="rotate(132 100 100)" stroke-width="0.4"/>
    <line x1="100" y1="4"   x2="100" y2="12"  transform="rotate(138 100 100)" stroke-width="0.4"/>
    <line x1="100" y1="4"   x2="100" y2="12"  transform="rotate(144 100 100)" stroke-width="0.4"/>
    <line x1="100" y1="4"   x2="100" y2="16"  transform="rotate(150 100 100)" stroke-width="0.6"/>
    <line x1="100" y1="4"   x2="100" y2="12"  transform="rotate(156 100 100)" stroke-width="0.4"/>
    <line x1="100" y1="4"   x2="100" y2="12"  transform="rotate(162 100 100)" stroke-width="0.4"/>
    <line x1="100" y1="4"   x2="100" y2="12"  transform="rotate(168 100 100)" stroke-width="0.4"/>
    <line x1="100" y1="4"   x2="100" y2="12"  transform="rotate(174 100 100)" stroke-width="0.4"/>
    <line x1="100" y1="4"   x2="100" y2="16"  transform="rotate(180 100 100)" stroke-width="0.6"/>
    <line x1="100" y1="4"   x2="100" y2="12"  transform="rotate(186 100 100)" stroke-width="0.4"/>
    <line x1="100" y1="4"   x2="100" y2="12"  transform="rotate(192 100 100)" stroke-width="0.4"/>
    <line x1="100" y1="4"   x2="100" y2="12"  transform="rotate(198 100 100)" stroke-width="0.4"/>
    <line x1="100" y1="4"   x2="100" y2="12"  transform="rotate(204 100 100)" stroke-width="0.4"/>
    <line x1="100" y1="4"   x2="100" y2="16"  transform="rotate(210 100 100)" stroke-width="0.6"/>
    <line x1="100" y1="4"   x2="100" y2="12"  transform="rotate(216 100 100)" stroke-width="0.4"/>
    <line x1="100" y1="4"   x2="100" y2="12"  transform="rotate(222 100 100)" stroke-width="0.4"/>
    <line x1="100" y1="4"   x2="100" y2="12"  transform="rotate(228 100 100)" stroke-width="0.4"/>
    <line x1="100" y1="4"   x2="100" y2="12"  transform="rotate(234 100 100)" stroke-width="0.4"/>
    <line x1="100" y1="4"   x2="100" y2="16"  transform="rotate(240 100 100)" stroke-width="0.6"/>
    <line x1="100" y1="4"   x2="100" y2="12"  transform="rotate(246 100 100)" stroke-width="0.4"/>
    <line x1="100" y1="4"   x2="100" y2="12"  transform="rotate(252 100 100)" stroke-width="0.4"/>
    <line x1="100" y1="4"   x2="100" y2="12"  transform="rotate(258 100 100)" stroke-width="0.4"/>
    <line x1="100" y1="4"   x2="100" y2="12"  transform="rotate(264 100 100)" stroke-width="0.4"/>
    <line x1="100" y1="4"   x2="100" y2="16"  transform="rotate(270 100 100)" stroke-width="0.6"/>
    <line x1="100" y1="4"   x2="100" y2="12"  transform="rotate(276 100 100)" stroke-width="0.4"/>
    <line x1="100" y1="4"   x2="100" y2="12"  transform="rotate(282 100 100)" stroke-width="0.4"/>
    <line x1="100" y1="4"   x2="100" y2="12"  transform="rotate(288 100 100)" stroke-width="0.4"/>
    <line x1="100" y1="4"   x2="100" y2="12"  transform="rotate(294 100 100)" stroke-width="0.4"/>
    <line x1="100" y1="4"   x2="100" y2="16"  transform="rotate(300 100 100)" stroke-width="0.6"/>
    <line x1="100" y1="4"   x2="100" y2="12"  transform="rotate(306 100 100)" stroke-width="0.4"/>
    <line x1="100" y1="4"   x2="100" y2="12"  transform="rotate(312 100 100)" stroke-width="0.4"/>
    <line x1="100" y1="4"   x2="100" y2="12"  transform="rotate(318 100 100)" stroke-width="0.4"/>
    <line x1="100" y1="4"   x2="100" y2="12"  transform="rotate(324 100 100)" stroke-width="0.4"/>
    <line x1="100" y1="4"   x2="100" y2="16"  transform="rotate(330 100 100)" stroke-width="0.6"/>
    <line x1="100" y1="4"   x2="100" y2="12"  transform="rotate(336 100 100)" stroke-width="0.4"/>
    <line x1="100" y1="4"   x2="100" y2="12"  transform="rotate(342 100 100)" stroke-width="0.4"/>
    <line x1="100" y1="4"   x2="100" y2="12"  transform="rotate(348 100 100)" stroke-width="0.4"/>
    <line x1="100" y1="4"   x2="100" y2="12"  transform="rotate(354 100 100)" stroke-width="0.4"/>
    <!-- Inner rings -->
    <circle cx="100" cy="100" r="50" stroke-width="0.8"/>
    <circle cx="100" cy="100" r="44" stroke-width="0.4"/>
  </g>
  <!-- Dollar sign -->
  <text x="100" y="116" text-anchor="middle" font-family="Georgia, serif" font-size="48" fill="#85bb65" opacity="0.5">$</text>
</svg>
